<svg id="Layer_1" data-name="Layer 1" xmlns="http://www.w3.org/2000/svg" width="24" height="24" viewBox="0 0 24 24">
  <path d="M16.7,2.06A11,11,0,1,0,21.94,16.7,11,11,0,0,0,16.7,2.06Zm4.36,7.11a13.34,13.34,0,0,0-1.83-1.9A13.81,13.81,0,0,0,19,5.62,9.42,9.42,0,0,1,21.06,9.17Zm-3.28,3a21.16,21.16,0,0,0-4.07-2.58l1.71-3.61a15.62,15.62,0,0,1,2.82,1.82A14.5,14.5,0,0,1,17.78,12.13ZM2.65,13.64a9.52,9.52,0,0,1,.5-5.07,10,10,0,0,1,3.42-.2c-.16.28-.31.55-.45.85a10.24,10.24,0,0,0-1,4.2A11.26,11.26,0,0,0,2.65,13.64Zm12.3-9a17,17,0,0,0-2.51-.9,15.39,15.39,0,0,1,1.76-1,9.16,9.16,0,0,1,1.4.46Zm-.43.9L12.81,9.12A22.05,22.05,0,0,0,8.25,7.6a14.72,14.72,0,0,1,3.08-3.12A16.26,16.26,0,0,1,14.52,5.51ZM12.38,10l-2.12,4.48a13.53,13.53,0,0,0-4.08-1A9.08,9.08,0,0,1,7,9.65a12.11,12.11,0,0,1,.61-1.13A19.7,19.7,0,0,1,12.38,10ZM9.83,15.42,7.7,19.91a15.87,15.87,0,0,1-1.49-5.43A12.28,12.28,0,0,1,9.83,15.42Zm.9.43a10.91,10.91,0,0,1,2.93,2.26,16,16,0,0,1-5.05,2.23Zm.43-.91,2.12-4.48a19,19,0,0,1,4.17,2.72A11.53,11.53,0,0,1,17,14.35a9.13,9.13,0,0,1-2.5,3.15A12,12,0,0,0,11.16,14.94ZM15.85,5l.65-1.38a9.43,9.43,0,0,1,1.25.79,14.64,14.64,0,0,1,.38,2A17.18,17.18,0,0,0,15.85,5ZM12.48,2.51c-.43.25-.9.54-1.41.9A13.26,13.26,0,0,0,8.45,3.2,9.52,9.52,0,0,1,12.48,2.51Zm-6.3,2A11,11,0,0,1,10,4.27,15.11,15.11,0,0,0,7.15,7.42a11.89,11.89,0,0,0-3.46,0A9.45,9.45,0,0,1,6.18,4.5ZM2.88,14.61a12.52,12.52,0,0,1,2.31-.19,16,16,0,0,0,1.34,5.33A9.42,9.42,0,0,1,2.88,14.61Zm6.59,6.54a16.28,16.28,0,0,0,4.85-2.26,11,11,0,0,1,1.21,1.92A9.44,9.44,0,0,1,9.47,21.15Zm7-.76a12,12,0,0,0-1.32-2.12,10.19,10.19,0,0,0,2.76-3.49c.13-.28.25-.57.36-.85a8.35,8.35,0,0,1,1.92,2.93A9.54,9.54,0,0,1,16.44,20.39Zm4.3-4.71a10.4,10.4,0,0,0-2.13-2.8,15.46,15.46,0,0,0,.66-4.2,11.25,11.25,0,0,1,2.22,3.08A9.49,9.49,0,0,1,20.74,15.68Z"/>
</svg>
